<mxfile host="app.diagrams.net" modified="2021-11-11T20:07:40.748Z" agent="5.0 (X11)" etag="FkUS-DhLqtwbpJAhBZKC" version="15.7.3" type="github">
  <diagram id="C5RBs43oDa-KdzZeNtuy" name="Page-1">
    <mxGraphModel dx="2183" dy="1940" grid="1" gridSize="10" guides="1" tooltips="1" connect="1" arrows="1" fold="1" page="1" pageScale="1" pageWidth="827" pageHeight="1169" math="0" shadow="0">
      <root>
        <mxCell id="WIyWlLk6GJQsqaUBKTNV-0" />
        <mxCell id="WIyWlLk6GJQsqaUBKTNV-1" parent="WIyWlLk6GJQsqaUBKTNV-0" />
        <mxCell id="CCxpbM_6_cSvE4r4ky-L-0" value="&lt;div&gt;Sistema de gestiÃ³n del instituto&lt;/div&gt;&lt;div&gt;&lt;br&gt;&lt;/div&gt;" style="whiteSpace=wrap;html=1;aspect=fixed;fillColor=none;labelPosition=center;verticalLabelPosition=top;align=center;verticalAlign=bottom;" vertex="1" parent="WIyWlLk6GJQsqaUBKTNV-1">
          <mxGeometry x="10" y="20" width="650" height="650" as="geometry" />
        </mxCell>
        <mxCell id="CCxpbM_6_cSvE4r4ky-L-30" value="Empresa" style="shape=umlActor;verticalLabelPosition=bottom;verticalAlign=top;html=1;outlineConnect=0;fontFamily=Helvetica;fillColor=none;" vertex="1" parent="WIyWlLk6GJQsqaUBKTNV-1">
          <mxGeometry x="-70" y="140" width="30" height="60" as="geometry" />
        </mxCell>
        <mxCell id="CCxpbM_6_cSvE4r4ky-L-31" value="&lt;div&gt;Introducir&lt;/div&gt;" style="ellipse;whiteSpace=wrap;html=1;fontFamily=Helvetica;fillColor=#A9C4EB;strokeColor=default;" vertex="1" parent="WIyWlLk6GJQsqaUBKTNV-1">
          <mxGeometry x="480" y="50" width="130" height="60" as="geometry" />
        </mxCell>
        <mxCell id="CCxpbM_6_cSvE4r4ky-L-32" value="Dar de baja" style="ellipse;whiteSpace=wrap;html=1;fontFamily=Helvetica;fillColor=#A9C4EB;strokeColor=default;" vertex="1" parent="WIyWlLk6GJQsqaUBKTNV-1">
          <mxGeometry x="480" y="120" width="130" height="60" as="geometry" />
        </mxCell>
        <mxCell id="CCxpbM_6_cSvE4r4ky-L-33" value="&lt;div&gt;Modificar&lt;/div&gt;" style="ellipse;whiteSpace=wrap;html=1;fontFamily=Helvetica;fillColor=#A9C4EB;strokeColor=default;" vertex="1" parent="WIyWlLk6GJQsqaUBKTNV-1">
          <mxGeometry x="480" y="190" width="130" height="60" as="geometry" />
        </mxCell>
        <mxCell id="CCxpbM_6_cSvE4r4ky-L-34" value="Consultar" style="ellipse;whiteSpace=wrap;html=1;fontFamily=Helvetica;fillColor=#A9C4EB;strokeColor=default;" vertex="1" parent="WIyWlLk6GJQsqaUBKTNV-1">
          <mxGeometry x="480" y="260" width="130" height="60" as="geometry" />
        </mxCell>
      </root>
    </mxGraphModel>
  </diagram>
</mxfile>
